<?xml version="1.0" encoding="UTF-8"?>
<svg id="Layer_1" data-name="Layer 1" xmlns="http://www.w3.org/2000/svg" xmlns:xlink="http://www.w3.org/1999/xlink" viewBox="0 0 165.69 162">
  <a xlink:href="41.1019607843137">
    <path id="logoMark__PathItem_" data-name="logoMark &amp;lt;PathItem&amp;gt;" d="M32.8866,89.0531c-1.2248,0-2.1908-.9158-2.247-2.1299-.9265-18.2216,5.3226-35.3719,17.5956-48.2854,12.7617-13.4262,30.9229-21.1267,49.8288-21.1267,8.1079,0,16.1623,1.3991,23.9387,4.1582,26.5081,9.0648,43.6872,39.081,37.4964,65.5399-.2534,1.0334-1.1654,1.7434-2.2229,1.7439-1.0671,0-1.9781-.7201-2.2133-1.7514-5.0093-22.3194-19.3839-40.5929-39.4403-50.1421-7.0622-3.6011-14.7253-5.4172-22.8139-5.4172-21.8404,0-42.6447,13.2182-51.7684,32.8913-3.3354,6.9055-5.368,14.651-5.8877,22.4215-.0011,1.1323-.9976,2.0978-2.2662,2.0978Z" style="fill: #3cb4e5;"/>
  </a>
  <a xlink:href="64.476862745098">
    <path id="logoMark__PathItem_-2" data-name="logoMark &amp;lt;PathItem&amp;gt;" d="M81.7039,162c-26.8224,0-51.0397-12.6569-66.4423-34.725C-.6826,104.4301-4.3891,74.9688,5.3483,48.4666,14.9114,20.8482,44.4117,0,73.959,0c3.947,0,7.8561,.3764,11.6197,1.1195,1.1141,.2652,1.8401,1.1916,1.8284,2.2662-.0128,1.0612-.7527,1.9604-1.8016,2.1866C56.8323,10.6505,32.6059,29.0662,20.7413,54.8456c-8.0052,16.1826-8.8173,35.0624-2.3052,53.2011,6.8136,18.9797,20.8027,34.3914,38.3801,42.2839,8.8237,4.0994,18.6867,6.5442,28.5423,7.0782,.602,.0326,1.1569,.2978,1.56,.7468s.6073,1.0286,.5742,1.6316c-.062,1.1473-.9762,2.0647-2.1235,2.1347-1.2392,.0519-2.4624,.0781-3.6653,.0781Z" style="fill: #0075c9;"/>
  </a>
  <a xlink:href="54.3462745098039">
    <path id="logoMark__PathItem_-3" data-name="logoMark &amp;lt;PathItem&amp;gt;" d="M101.1412,145.9387c-3.6375,0-7.1755-.5095-10.5147-1.5145-1.2125-.3699-1.8957-1.6514-1.529-2.858,.2256-.734,.7944-1.3018,1.5226-1.5242,6.3608-2.0192,11.6801-4.4004,16.2436-7.2755,4.65-2.9061,8.7975-6.4474,12.3302-10.5291,8.4436-10.0918,12.6189-19.1091,13.1215-28.3584,.5891-11.0402-3.3103-22.1906-10.6997-30.5909-7.5401-8.7462-18.7135-14.3323-30.6673-15.3379-1.128-.0331-2.0486-.9976-2.0582-2.2384-.0096-1.2387,.9003-2.2154,2.1171-2.2726,1.3344-.1176,2.7522-.1791,4.1507-.1791,13.1749,0,25.7981,5.3263,35.544,14.9974,9.7117,9.6385,15.2813,22.3028,15.6822,35.66,.8158,16.1479-4.9088,31.1859-15.3155,40.1946-8.3175,7.5081-19.2342,11.8266-29.9274,11.8266Z" style="fill: #00af9a;"/>
  </a>
  <a xlink:href="54.9835294117647">
    <path id="logoMark__PathItem_-4" data-name="logoMark &amp;lt;PathItem&amp;gt;" d="M82.6373,129.9785c-16.6199,.0011-29.3885-9.7582-32.5304-24.8631-1.081-5.4546-.5843-10.6756,1.4333-15.1134,.3758-.8286,1.2077-1.3638,2.1181-1.3638,.3341,0,.6586,.0706,.9639,.2096,.5052,.2283,.9158,.6367,1.1505,1.1478,2.0101,4.1887,3.931,7.4182,6.0347,10.1394,4.4442,5.8369,9.871,9.5043,15.0754,12.5997,3.5712,2.0855,7.4535,3.1462,11.5283,3.1467,13.3321,.0005,25.8077-11.6267,27.2426-25.3907,.0898-1.1221,1.0585-1.9973,2.2507-1.9973,1.19,0,2.1598,.8736,2.255,2.0315,1.9823,13.802-6.4666,29.0688-19.664,35.4184-5.5546,2.6404-11.7272,4.0352-17.8581,4.0352Z" style="fill: #00bc70;"/>
  </a>
</svg>